<svg width="14" height="14" viewBox="0 0 14 14" fill="none" xmlns="http://www.w3.org/2000/svg">
<path d="M4.66723 7.00028C4.66723 5.71161 5.71161 4.66667 7.00028 4.66667C8.28895 4.66667 9.33389 5.71161 9.33389 7.00028C9.33389 8.28895 8.28895 9.33389 7.00028 9.33389C5.71161 9.33389 4.66723 8.28895 4.66723 7.00028ZM3.40572 7.00028C3.40572 8.98556 5.015 10.5948 7.00028 10.5948C8.98556 10.5948 10.5948 8.98556 10.5948 7.00028C10.5948 5.015 8.98556 3.40572 7.00028 3.40572C5.015 3.40572 3.40572 5.015 3.40572 7.00028ZM9.89711 3.2632C9.89704 3.42934 9.94624 3.59177 10.0385 3.72995C10.1307 3.86813 10.2619 3.97585 10.4154 4.03949C10.5688 4.10313 10.7377 4.11984 10.9007 4.08749C11.0637 4.05514 11.2134 3.9752 11.3309 3.85776C11.4484 3.74033 11.5285 3.59068 11.561 3.42774C11.5934 3.26481 11.5769 3.0959 11.5134 2.94237C11.4498 2.78885 11.3422 2.65761 11.2041 2.56526C11.066 2.4729 10.9036 2.42356 10.7375 2.4235H10.7371C10.5144 2.4236 10.3009 2.51209 10.1434 2.66953C9.98588 2.82698 9.8973 3.04049 9.89711 3.2632ZM4.17217 12.6983C3.48967 12.6673 3.11871 12.5536 2.87219 12.4575C2.54536 12.3303 2.31216 12.1788 2.06699 11.9339C1.82181 11.6891 1.67004 11.4561 1.54337 11.1293C1.44727 10.8829 1.33358 10.5118 1.30256 9.82929C1.26862 9.09141 1.26184 8.86975 1.26184 7.00034C1.26184 5.13093 1.26918 4.90989 1.30256 4.17138C1.33364 3.48888 1.44816 3.11854 1.54337 2.8714C1.6706 2.54457 1.82214 2.31138 2.06699 2.0662C2.31183 1.82103 2.5448 1.66926 2.87219 1.54258C3.1186 1.44648 3.48967 1.3328 4.17217 1.30177C4.91005 1.26784 5.13171 1.26106 7.00028 1.26106C8.86885 1.26106 9.09073 1.26839 9.82923 1.30177C10.5117 1.33285 10.8821 1.44738 11.1292 1.54258C11.456 1.66926 11.6892 1.82136 11.9344 2.0662C12.1796 2.31104 12.3308 2.54457 12.458 2.8714C12.5541 3.11781 12.6678 3.48888 12.6988 4.17138C12.7328 4.90989 12.7396 5.13093 12.7396 7.00034C12.7396 8.86975 12.7328 9.09079 12.6988 9.82929C12.6678 10.5118 12.5535 10.8827 12.458 11.1293C12.3308 11.4561 12.1793 11.6893 11.9344 11.9339C11.6896 12.1785 11.456 12.3303 11.1292 12.4575C10.8828 12.5536 10.5117 12.6673 9.82923 12.6983C9.09135 12.7323 8.86969 12.7391 7.00028 12.7391C5.13087 12.7391 4.90983 12.7323 4.17217 12.6983ZM4.1142 0.0423937C3.36898 0.0763311 2.85975 0.194496 2.41504 0.367543C1.95448 0.546246 1.56459 0.785992 1.17498 1.17498C0.785375 1.56397 0.546246 1.95448 0.367543 2.41504C0.194496 2.86003 0.0763311 3.36898 0.0423937 4.11421C0.00789632 4.8606 0 5.09923 0 7.00028C0 8.90133 0.00789632 9.13996 0.0423937 9.88636C0.0763311 10.6316 0.194496 11.1405 0.367543 11.5855C0.546246 12.0458 0.785431 12.4368 1.17498 12.8256C1.56453 13.2144 1.95448 13.4538 2.41504 13.633C2.86059 13.8061 3.36898 13.9242 4.1142 13.9582C4.86099 13.9921 5.09923 14.0006 7.00028 14.0006C8.90133 14.0006 9.13996 13.9927 9.88636 13.9582C10.6316 13.9242 11.1405 13.8061 11.5855 13.633C12.0458 13.4538 12.436 13.2146 12.8256 12.8256C13.2152 12.4366 13.4538 12.0458 13.633 11.5855C13.8061 11.1405 13.9248 10.6316 13.9582 9.88636C13.9921 9.1394 14 8.90133 14 7.00028C14 5.09923 13.9921 4.8606 13.9582 4.11421C13.9242 3.36893 13.8061 2.85976 13.633 2.41504C13.4538 1.95476 13.2146 1.56459 12.8256 1.17498C12.4366 0.785376 12.0458 0.546246 11.5861 0.367543C11.1405 0.194496 10.6316 0.075771 9.88692 0.0423937C9.14052 0.00845634 8.90189 0 7.00084 0C5.09979 0 4.86099 0.00789632 4.1142 0.0423937Z" fill="white"/>
</svg>
