<svg width="10" height="16" viewBox="0 0 10 16" fill="none" xmlns="http://www.w3.org/2000/svg">
<path d="M5.71912 15.5002L6.21911 15.5002V15.0002V9.11413H7.86267H8.30233L8.35856 8.67808L8.67948 6.18932L8.7522 5.62537H8.18359H6.21911V4.53638C6.21911 4.19752 6.27241 4.05177 6.33082 3.98239C6.373 3.9323 6.50252 3.82475 6.95257 3.82475H6.9528L8.27069 3.82414L8.77046 3.82391V3.32414V1.09823V0.660125L8.33615 0.602568C8.08337 0.56907 7.27893 0.500275 6.35007 0.500275C5.29855 0.500275 4.36133 0.822879 3.68556 1.49079C3.00825 2.16024 2.6491 3.12166 2.6491 4.29002V5.62544H1H0.5V6.12544V8.6142V9.1142H1H2.64903V15.0003V15.5003L3.14905 15.5003L5.71912 15.5002Z" stroke="white"/>
</svg>
