<svg width="18" height="15" viewBox="0 0 18 15" fill="none" xmlns="http://www.w3.org/2000/svg">
<path d="M15.1631 3.14674C15.2405 2.99387 15.307 2.83355 15.3612 2.66631L15.7642 1.42372L14.6346 2.07966C14.1845 2.34099 13.7135 2.53787 13.2092 2.66219C12.6177 2.13339 11.8238 1.81049 10.9642 1.81049C9.09378 1.81049 7.5872 3.31707 7.5872 5.18745C7.5872 5.22158 7.58759 5.25666 7.58846 5.29249C5.59486 5.03039 3.83447 4.013 2.63008 2.52707L2.1677 1.95659L1.80637 2.59587C1.52912 3.08639 1.35683 3.66527 1.35683 4.28954C1.35683 4.76669 1.45502 5.21948 1.63149 5.6294L1.33851 5.46199V6.32358V6.32368V6.32379V6.3239V6.324V6.32411V6.32421V6.32432V6.32442V6.32452V6.32463V6.32473V6.32483V6.32494V6.32504V6.32514V6.32524V6.32534V6.32544V6.32554V6.32564V6.32574V6.32584V6.32594V6.32604V6.32613V6.32623V6.32633V6.32642V6.32652V6.32662V6.32671V6.32681V6.3269V6.32699V6.32709V6.32718V6.32727V6.32737V6.32746V6.32755V6.32764V6.32774V6.32783V6.32792V6.32801V6.3281V6.32819V6.32828V6.32837V6.32845V6.32854V6.32863V6.32872V6.3288V6.32889V6.32898V6.32906V6.32915V6.32924V6.32932V6.32941V6.32949V6.32958V6.32966V6.32974V6.32983V6.32991V6.32999V6.33008V6.33016V6.33024V6.33032V6.3304V6.33048V6.33056V6.33064V6.33072V6.3308V6.33088V6.33096V6.33104V6.33112V6.3312V6.33128V6.33135V6.33143V6.33151V6.33159V6.33166V6.33174V6.33182V6.33189V6.33197V6.33204V6.33212V6.33219V6.33227V6.33234V6.33241V6.33249V6.33256V6.33264V6.33271V6.33278V6.33285V6.33293V6.333V6.33307V6.33314V6.33321V6.33328V6.33335V6.33342V6.33349V6.33356V6.33363V6.3337V6.33377V6.33384V6.33391V6.33398V6.33405V6.33412V6.33419V6.33425V6.33432V6.33439V6.33446V6.33452V6.33459V6.33466V6.33472V6.33479V6.33485V6.33492V6.33499V6.33505V6.33512V6.33518V6.33525V6.33531V6.33538V6.33544V6.3355V6.33557V6.33563V6.33569V6.33576V6.33582V6.33588V6.33595V6.33601V6.33607V6.33613V6.3362V6.33626V6.33632V6.33638V6.33644V6.3365V6.33657V6.33663V6.33669V6.33675V6.33681V6.33687V6.33693V6.33699V6.33705V6.33711V6.33717V6.33723V6.33729V6.33735V6.33741V6.33747V6.33752V6.33758V6.33764V6.3377V6.33776V6.33782V6.33787V6.33793V6.33799V6.33805V6.33811V6.33816V6.33822V6.33828V6.33834V6.33839V6.33845V6.33851V6.33856V6.33862V6.33868V6.33873V6.33879V6.33885V6.3389V6.33896V6.33901V6.33907V6.33913V6.33918V6.33924V6.33929V6.33935V6.3394V6.33946V6.33951V6.33957V6.33962V6.33968V6.33974V6.33979V6.33984V6.3399V6.33995V6.34001V6.34006V6.34012V6.34017V6.34023V6.34028V6.34034V6.34039V6.34045V6.3405V6.34055V6.34061V6.34066V6.34072V6.34077V6.34082V6.34088V6.34093V6.34099V6.34104V6.34109V6.34115V6.3412V6.34126V6.34131V6.34136V6.34142V6.34147V6.34152V6.34158V6.34163V6.34169V6.34174V6.34179V6.34185V6.3419V6.34195V6.34201V6.34206V6.34211V6.34217V6.34222V6.34228V6.34233V6.34238V6.34244V6.34249V6.34254V6.3426V6.34265V6.34271V6.34276V6.34281V6.34287V6.34292V6.34298V6.34303V6.34308V6.34314V6.34319V6.34325V6.3433V6.34335V6.34341V6.34346V6.34352V6.34357V6.34363V6.34368V6.34374V6.34379V6.34385V6.3439V6.34396V6.34401V6.34406V6.34412V6.34417V6.34423V6.34429V6.34434V6.3444V6.34445V6.34451V6.34456V6.34462V6.34467V6.34473V6.34479V6.34484V6.3449V6.34495V6.34501V6.34507V6.34512V6.34518V6.34524V6.34529V6.34535V6.34541V6.34546V6.34552V6.34558V6.34564V6.34569V6.34575V6.34581V6.34587V6.34593V6.34598V6.34604V6.3461V6.34616V6.34622V6.34628V6.34633V6.34639V6.34645V6.34651V6.34657V6.34663V6.34669V6.34675V6.34681V6.34687V6.34693V6.34699V6.34705V6.34711V6.34717V6.34723V6.3473V6.34736V6.34742V6.34748V6.34754V6.3476V6.34767V6.34773V6.34779V6.34785V6.34792V6.34798V6.34804V6.34811V6.34817V6.34823V6.3483V6.34836V6.34842V6.34849V6.34855V6.34862V6.34868V6.34875V6.34881V6.34888V6.34895V6.34901V6.34908V6.34914V6.34921V6.34928V6.34934V6.34941V6.34948V6.34955V6.34961V6.34968V6.34975V6.34982V6.34989V6.34996V6.35003V6.3501V6.35017V6.35023V6.35031V6.35038V6.35045V6.35052V6.35059V6.35066V6.35073V6.3508V6.35087V6.35095V6.35102V6.35109V6.35116V6.35124V6.35131V6.35139V6.35146V6.35153V6.35161V6.35168V6.35176V6.35183V6.35191V6.35198V6.35206V6.35214V6.35221V6.35229V6.35237V6.35245V6.35252V6.3526V6.35268V6.35276V6.35284V6.35292V6.353V6.35308V6.35316V6.35324V6.35332V6.3534V6.35348V6.35356V6.35364V6.35372V6.35381V6.35389V6.35397V6.35406V6.35414V6.35422V6.35431V6.35439V6.35448V6.35456V6.35465V6.35474V6.35482V6.35491V6.355V6.35508V6.35517V6.35526V6.35535V6.35543V6.35552V6.35561V6.3557V6.35579V6.35588V6.35597V6.35606V6.35616V6.35625V6.35634V6.35643V6.35653V6.35662V6.35671V6.35681V6.3569V6.35699V6.35709V6.35718V6.35728V6.35738V6.35747V6.35757V6.35767V6.35776V6.35786V6.35796V6.35806V6.35816V6.35826V6.35836V6.35846V6.35856V6.35866V6.35876V6.35886V6.35897V6.35907V6.35917V6.35928V6.35938V6.35948V6.35959V6.35969V6.3598V6.3599V6.36001V6.36012V6.36022C1.33851 7.20963 1.65196 7.98357 2.17015 8.57372L2.1228 8.56425L2.36831 9.36537C2.65134 10.2889 3.33366 11.0466 4.21745 11.4349C3.52636 11.7615 2.7556 11.944 1.94846 11.944C1.75197 11.944 1.53295 11.9275 1.31197 11.9091L1.00436 12.8307C2.36184 13.6839 3.95595 14.1901 5.68668 14.1901C11.2976 14.1901 14.3595 9.52564 14.3595 5.51729V5.51665V5.516V5.51536V5.51471V5.51407V5.51342V5.51277V5.51213V5.51148V5.51083V5.51018V5.50953V5.50888V5.50823V5.50758V5.50693V5.50628V5.50563V5.50498V5.50433V5.50367V5.50302V5.50237V5.50171V5.50106V5.5004V5.49975V5.49909V5.49844V5.49778V5.49712V5.49647V5.49581V5.49515V5.49449V5.49383V5.49318V5.49252V5.49186V5.4912V5.49054V5.48988V5.48921V5.48855V5.48789V5.48723V5.48656V5.4859V5.48524V5.48457V5.48391V5.48324V5.48258V5.48191V5.48125V5.48058V5.47992V5.47925V5.47858V5.47791V5.47725V5.47658V5.47591V5.47524V5.47457V5.4739V5.47323V5.47256V5.47189V5.47122V5.47054V5.46987V5.4692V5.46853V5.46785V5.46718V5.46651V5.46583V5.46516V5.46448V5.46381V5.46313V5.46246V5.46178V5.4611V5.46042V5.45975V5.45907V5.45839V5.45771V5.45703V5.45636V5.45568V5.455V5.45432V5.45363V5.45295V5.45227V5.45159V5.45091V5.45023V5.44954V5.44886V5.44818V5.44749V5.44681V5.44613V5.44544V5.44476V5.44407V5.44339V5.4427V5.44201V5.44133V5.44064V5.43995V5.43927V5.43858V5.43789V5.4372V5.43651V5.43582V5.43513V5.43444V5.43375V5.43306V5.43237V5.43168V5.43099V5.4303V5.42961V5.42891V5.42822V5.42753V5.42684V5.42614V5.42545V5.42475V5.42406V5.42337V5.42267V5.42197V5.42128V5.42058V5.41989V5.41919V5.41849V5.4178V5.4171V5.4164V5.4157V5.415V5.41431V5.41361V5.41291V5.41221V5.41151V5.41081V5.41011V5.40941V5.40871V5.408V5.4073V5.4066V5.4059V5.4052V5.40449V5.40379V5.40309V5.40238V5.40168V5.40153C14.8908 4.98577 15.3401 4.48006 15.6944 3.91318L16.5865 2.4859L15.1631 3.14674Z" stroke="white"/>
</svg>
