<svg width="14" height="17" viewBox="0 0 14 17" fill="none" xmlns="http://www.w3.org/2000/svg">
<path d="M6.1786 11.5151C6.27239 11.5786 6.37052 11.6365 6.47124 11.6886C6.89507 11.9076 7.40568 12.0447 7.935 12.0447C10.9518 12.0447 12.9956 9.28291 12.9956 6.07638C12.9956 2.86391 10.367 0.500275 7.07665 0.500275C5.063 0.500275 3.47844 1.1788 2.39637 2.26736C1.3181 3.35209 0.770447 4.81253 0.770447 6.32057C0.770447 7.04647 0.961423 7.8451 1.30205 8.53589C1.63963 9.22049 2.1537 9.85676 2.84185 10.1773M6.1786 11.5151L2.84085 10.1768C2.84118 10.1769 2.84151 10.1771 2.84185 10.1773M6.1786 11.5151L6.16905 11.5514C6.04559 12.0204 5.9083 12.5412 5.85344 12.747C5.62705 13.6231 5.0114 14.6914 4.65479 15.2645L4.45151 15.5911L4.08368 15.4783C3.89237 15.4196 3.70962 15.3495 3.54346 15.2856C3.53175 15.2811 3.52012 15.2767 3.50858 15.2723L3.22532 15.1636L3.19088 14.8622C3.11236 14.1752 3.01604 12.9637 3.22023 12.0807L3.2205 12.0795C3.29107 11.7777 3.49871 10.8977 3.70924 10.0062C3.64804 10.0912 3.55991 10.1713 3.43263 10.2214C3.18264 10.3198 2.95188 10.2289 2.84185 10.1773M6.1786 11.5151L2.84185 10.1773M4.21425 7.86893C4.18753 7.79884 4.15659 7.70964 4.126 7.6036C4.0498 7.33937 3.97446 6.96597 3.97446 6.52036C3.97446 5.16293 4.78474 3.88681 6.06537 3.88681C6.578 3.88681 7.00277 4.08555 7.28955 4.43563C7.56532 4.77227 7.67778 5.20396 7.67778 5.62501C7.67778 6.085 7.53563 6.62137 7.38663 7.1223C7.34109 7.2754 7.29435 7.42691 7.248 7.57716C7.13395 7.94686 7.02228 8.30887 6.93672 8.66791L4.21425 7.86893ZM4.21425 7.86893L4.21407 7.86969L4.11324 8.29625L4.08851 8.4009C4.06401 8.2677 4.00394 8.13979 3.90794 8.03292C3.63069 7.688 3.37616 7.00222 3.37616 6.3551C3.37616 4.67058 4.64136 3.03939 6.8448 3.03939C7.80965 3.03939 8.59798 3.36587 9.14263 3.89601C9.68628 4.42517 10.0175 5.18641 10.0175 6.11585C10.0175 7.22552 9.73658 8.12582 9.3116 8.73369C8.89034 9.33623 8.3405 9.64122 7.75248 9.64122C7.17558 9.64122 6.81201 9.19512 6.9367 8.66798L4.21425 7.86893Z" stroke="white"/>
</svg>
